<svg width="312" height="64" viewBox="0 0 312 64" fill="none" xmlns="http://www.w3.org/2000/svg">
<g clip-path="url(#clip0_121_4405)">
<path d="M90.1516 26.8141H84.0744L83.124 29.6294H78.0643L84.8012 12.2905H89.4192L96.3015 29.6294H91.1021L90.1572 26.8141H90.1516ZM87.1047 17.7064L85.2261 23.0772H88.9999L87.1047 17.7064Z" fill="#ED1C24"/>
<path d="M97.6992 23.8856V16.2535H102.256V23.6877C102.256 25.1011 103.005 25.9321 104.224 25.9321C105.442 25.9321 106.175 25.0898 106.175 23.6877V16.2535H110.731V23.8856C110.731 27.6281 108.132 30.0647 104.224 30.0647C100.316 30.0647 97.6992 27.6281 97.6992 23.8856Z" fill="#ED1C24"/>
<path d="M122.958 25.5929V29.6294H119.822C116.898 29.6294 115.12 27.8204 115.12 24.8467V19.7982H112.699V18.724L118.626 12.3414H119.559V16.2535H122.88V19.7982H119.671V24.0552C119.671 25.0106 120.241 25.5929 121.203 25.5929H122.953H122.958Z" fill="#ED1C24"/>
<path d="M124.803 22.9415C124.803 18.7975 127.906 15.8182 132.217 15.8182C136.527 15.8182 139.63 18.7975 139.63 22.9415C139.63 27.0854 136.51 30.0648 132.217 30.0648C127.923 30.0648 124.803 27.0685 124.803 22.9415ZM132.217 25.9321C133.877 25.9321 135.068 24.711 135.068 22.9471C135.068 21.1833 133.877 19.9621 132.217 19.9621C130.556 19.9621 129.365 21.1833 129.365 22.9471C129.365 24.711 130.556 25.9321 132.217 25.9321Z" fill="#ED1C24"/>
<path d="M142.353 16.2535H146.909V29.6294H142.353V16.2535ZM142.386 10.6736H146.87V14.5858H142.386V10.6736Z" fill="#ED1C24"/>
<path d="M163.458 21.4772V29.6294H158.902V22.1104C158.902 20.5557 158.326 19.7812 157.18 19.7812C155.76 19.7812 154.943 20.7819 154.943 22.4892V29.6294H150.387V16.2535H153.585L154.211 17.6329C155.195 16.5249 156.665 15.8578 158.376 15.8578C161.445 15.8578 163.464 18.0626 163.464 21.4716L163.458 21.4772Z" fill="#ED1C24"/>
<path d="M171.9 30.0704C168.294 30.0704 166.103 28.1426 166.063 25.2481H170.447C170.447 26.2261 171.118 26.6784 171.984 26.6784C172.649 26.6784 173.281 26.3335 173.281 25.6438C173.281 24.8749 172.28 24.6544 171.011 24.4396C168.96 24.1061 166.242 23.4785 166.242 20.2335C166.242 17.5538 168.501 15.8239 171.889 15.8239C175.277 15.8239 177.441 17.6329 177.491 20.3466H173.225C173.225 19.4929 172.661 19.0972 171.833 19.0972C171.101 19.0972 170.614 19.4646 170.614 20.0809C170.614 20.8441 171.626 21.0193 172.884 21.2455C174.975 21.6186 177.754 22.0595 177.754 25.4516C177.754 28.2444 175.422 30.0761 171.906 30.0761L171.9 30.0704Z" fill="#ED1C24"/>
<path d="M195.152 22.9415C195.152 27.108 192.262 30.0817 188.22 30.0817C187.023 30.0817 185.928 29.7651 184.994 29.1941V34.4574H180.493V16.2535H183.591L184.161 17.3164C185.251 16.3666 186.649 15.8182 188.22 15.8182C192.262 15.8182 195.152 18.7749 195.152 22.9415ZM190.568 22.9415C190.568 21.1833 189.316 19.883 187.61 19.883C185.905 19.883 184.647 21.1889 184.647 22.9415C184.647 24.694 185.9 26 187.61 26C189.321 26 190.568 24.694 190.568 22.9415Z" fill="#ED1C24"/>
<path d="M211.483 22.8171C211.483 23.2185 211.45 23.6255 211.388 24.0382H201.565C201.861 25.5703 202.829 26.3674 204.265 26.3674C205.328 26.3674 206.217 25.8982 206.658 25.1124H211.192C210.259 28.1652 207.586 30.0704 204.265 30.0704C200.139 30.0704 197.081 27.0232 197.081 22.9358C197.081 18.8484 200.111 15.8239 204.265 15.8239C208.419 15.8239 211.483 18.8993 211.483 22.8227V22.8171ZM201.649 21.4829H206.994C206.597 20.1487 205.641 19.4251 204.265 19.4251C202.89 19.4251 202.012 20.1544 201.643 21.4829H201.649Z" fill="#ED1C24"/>
<path d="M220.708 30.0648C216.464 30.0648 213.406 27.0628 213.406 22.9245C213.406 18.7862 216.453 15.8408 220.725 15.8408C224.442 15.8408 227.227 18.2096 227.73 21.7656H223.291C222.905 20.6745 221.899 19.9678 220.713 19.9678C219.114 19.9678 217.974 21.2002 217.974 22.9415C217.974 24.6827 219.126 25.9434 220.713 25.9434C221.938 25.9434 222.927 25.1859 223.302 23.993H227.78C227.266 27.6225 224.437 30.0704 220.713 30.0704L220.708 30.0648Z" fill="#ED1C24"/>
<path d="M239.152 25.5929V29.6294H236.015C233.092 29.6294 231.314 27.8204 231.314 24.8467V19.7982H228.893V18.724L234.819 12.3414H235.753V16.2535H239.074V19.7982H235.865V24.0552C235.865 25.0106 236.435 25.5929 237.396 25.5929H239.146H239.152Z" fill="#ED1C24"/>
<path d="M240.997 22.9415C240.997 18.7975 244.1 15.8182 248.41 15.8182C252.721 15.8182 255.824 18.7975 255.824 22.9415C255.824 27.0854 252.704 30.0648 248.41 30.0648C244.117 30.0648 240.997 27.0685 240.997 22.9415ZM248.416 25.9321C250.076 25.9321 251.267 24.711 251.267 22.9471C251.267 21.1833 250.076 19.9621 248.416 19.9621C246.755 19.9621 245.565 21.1833 245.565 22.9471C245.565 24.711 246.755 25.9321 248.416 25.9321Z" fill="#ED1C24"/>
<path d="M267.162 16.1913V20.4087H265.395C263.785 20.4087 263.108 21.1267 263.108 22.8284V29.6294H258.552V16.2535H261.605L262.315 17.7403C263.248 16.6492 264.383 16.1913 265.96 16.1913H267.167H267.162Z" fill="#ED1C24"/>
<path d="M283.353 16.2422V29.6181H279.831L279.439 28.674C278.355 29.5616 276.985 30.0704 275.447 30.0704C271.405 30.0704 268.515 27.0854 268.515 22.9302C268.515 18.7749 271.405 15.8408 275.447 15.8408C277.007 15.8408 278.399 16.3666 279.49 17.2768L279.954 16.2422H283.347H283.353ZM279.02 22.9415C279.02 21.2059 277.768 19.9 276.062 19.9C274.357 19.9 273.105 21.2059 273.105 22.9415C273.105 24.6771 274.357 25.9943 276.062 25.9943C277.768 25.9943 279.02 24.6884 279.02 22.9415Z" fill="#ED1C24"/>
<path d="M295.753 25.5929V29.6294H292.617C289.693 29.6294 287.915 27.8204 287.915 24.8467V19.7982H285.494V18.724L291.42 12.3414H292.354V16.2535H295.675V19.7982H292.466V24.0552C292.466 25.0106 293.036 25.5929 293.998 25.5929H295.748H295.753Z" fill="#ED1C24"/>
<path d="M312 22.8171C312 23.2185 311.967 23.6255 311.905 24.0382H302.082C302.378 25.5703 303.346 26.3674 304.782 26.3674C305.845 26.3674 306.734 25.8982 307.175 25.1124H311.709C310.781 28.1652 308.103 30.0704 304.788 30.0704C300.662 30.0704 297.604 27.0232 297.604 22.9358C297.604 18.8484 300.634 15.8239 304.788 15.8239C308.942 15.8239 312 18.8993 312 22.8227V22.8171ZM302.166 21.4829H307.511C307.114 20.1487 306.158 19.4251 304.782 19.4251C303.407 19.4251 302.529 20.1544 302.16 21.4829H302.166Z" fill="#ED1C24"/>
<path d="M189.344 35.8369H192.094V45.3967H189.344V35.8369Z" fill="#ED1C24"/>
<path d="M201.632 40.9023V45.3967H199.016V41.2528C199.016 40.3935 198.686 39.9695 198.026 39.9695C197.21 39.9695 196.74 40.5235 196.74 41.462V45.3967H194.124V38.0247H195.957L196.315 38.7879C196.88 38.1773 197.724 37.8099 198.708 37.8099C200.475 37.8099 201.632 39.0254 201.632 40.9079V40.9023Z" fill="#ED1C24"/>
<path d="M211.567 35.362V45.3967H209.632L209.386 44.8484C208.766 45.3515 207.978 45.6455 207.094 45.6455C204.763 45.6455 203.102 44.0004 203.102 41.7107C203.102 39.4211 204.763 37.7816 207.094 37.7816C207.793 37.7816 208.436 37.9625 208.984 38.2961V35.362H211.572H211.567ZM209.14 41.7107C209.14 40.7497 208.419 40.0204 207.441 40.0204C206.462 40.0204 205.741 40.744 205.741 41.7107C205.741 42.6775 206.462 43.3954 207.441 43.3954C208.419 43.3954 209.14 42.6718 209.14 41.7107Z" fill="#ED1C24"/>
<path d="M213.557 38.0247H216.174V45.3967H213.557V38.0247ZM213.58 34.9436H216.157V37.0975H213.58V34.9436Z" fill="#ED1C24"/>
<path d="M226.254 38.0191V45.3911H224.23L224.006 44.871C223.386 45.3628 222.598 45.6398 221.714 45.6398C219.388 45.6398 217.734 43.9947 217.734 41.7051C217.734 39.4155 219.394 37.7986 221.714 37.7986C222.609 37.7986 223.408 38.0869 224.034 38.5901L224.303 38.0191H226.254ZM223.766 41.7107C223.766 40.7553 223.045 40.0373 222.066 40.0373C221.088 40.0373 220.367 40.7553 220.367 41.7107C220.367 42.6662 221.088 43.3898 222.066 43.3898C223.045 43.3898 223.766 42.6718 223.766 41.7107Z" fill="#ED1C24"/>
<path d="M239.627 39.2911C239.627 41.2924 238.073 42.7566 235.976 42.7566H234.5V45.3967H231.783V35.8369H235.976C238.067 35.8369 239.627 37.2841 239.627 39.2911ZM236.837 39.2967C236.837 38.6183 236.368 38.1378 235.652 38.1378H234.506V40.4557H235.652C236.368 40.4557 236.837 39.9751 236.837 39.2967Z" fill="#ED1C24"/>
<path d="M246.023 37.9908V40.3143H245.006C244.077 40.3143 243.692 40.7101 243.692 41.6485V45.3967H241.075V38.0247H242.825L243.233 38.8444C243.77 38.2452 244.418 37.9908 245.324 37.9908H246.017H246.023Z" fill="#ED1C24"/>
<path d="M247.365 38.0247H249.981V45.3967H247.365V38.0247ZM247.382 34.9436H249.959V37.0975H247.382V34.9436Z" fill="#ED1C24"/>
<path d="M259.676 38.0247L256.623 45.3967H254.253L251.155 38.0247H254.023L255.46 42.3948L256.88 38.0247H259.676Z" fill="#ED1C24"/>
<path d="M268.615 38.0191V45.3911H266.591L266.368 44.871C265.747 45.3628 264.959 45.6398 264.076 45.6398C261.755 45.6398 260.095 43.9947 260.095 41.7051C260.095 39.4155 261.755 37.7986 264.076 37.7986C264.97 37.7986 265.77 38.0869 266.396 38.5901L266.664 38.0191H268.615ZM266.127 41.7107C266.127 40.7553 265.406 40.0373 264.428 40.0373C263.449 40.0373 262.728 40.7553 262.728 41.7107C262.728 42.6662 263.449 43.3898 264.428 43.3898C265.406 43.3898 266.127 42.6718 266.127 41.7107Z" fill="#ED1C24"/>
<path d="M275.732 43.1749V45.3967H273.932C272.255 45.3967 271.232 44.4017 271.232 42.7622V39.9808H269.84V39.3872L273.245 35.8708H273.781V38.0247H275.688V39.9808H273.848V42.3269C273.848 42.8527 274.178 43.1749 274.726 43.1749H275.732Z" fill="#ED1C24"/>
<path d="M285.064 41.6429C285.064 41.8634 285.041 42.0895 285.008 42.3156H279.367C279.54 43.1636 280.093 43.599 280.915 43.599C281.525 43.599 282.039 43.3389 282.291 42.9092H284.896C284.359 44.5939 282.822 45.6455 280.915 45.6455C278.545 45.6455 276.789 43.9664 276.789 41.7107C276.789 39.455 278.534 37.7873 280.915 37.7873C283.297 37.7873 285.058 39.4833 285.058 41.6485L285.064 41.6429ZM279.411 40.9079H282.481C282.251 40.173 281.703 39.7716 280.915 39.7716C280.127 39.7716 279.624 40.173 279.411 40.9079Z" fill="#ED1C24"/>
<path d="M296.385 42.9884V45.4024H290.129V35.8425H292.879V42.9884H296.385Z" fill="#ED1C24"/>
<path d="M302.3 43.1749V45.3967H300.5C298.822 45.3967 297.799 44.4017 297.799 42.7622V39.9808H296.407V39.3872L299.812 35.8708H300.349V38.0247H302.255V39.9808H300.416V42.3269C300.416 42.8527 300.746 43.1749 301.294 43.1749H302.3Z" fill="#ED1C24"/>
<path d="M311.821 35.362V45.3967H309.887L309.641 44.8484C309.02 45.3515 308.232 45.6455 307.348 45.6455C305.017 45.6455 303.357 44.0004 303.357 41.7107C303.357 39.4211 305.017 37.7816 307.348 37.7816C308.047 37.7816 308.69 37.9625 309.238 38.2961V35.362H311.827H311.821ZM309.4 41.7107C309.4 40.7497 308.679 40.0204 307.701 40.0204C306.722 40.0204 306.001 40.744 306.001 41.7107C306.001 42.6775 306.722 43.3954 307.701 43.3954C308.679 43.3954 309.4 42.6718 309.4 41.7107Z" fill="#ED1C24"/>
<path d="M35.9041 24.6149C35.9041 18.0965 35.9041 11.5838 35.9041 5.06544C35.9041 3.01891 37.1396 1.7582 39.1635 1.75255C41.9365 1.75255 44.7096 1.7582 47.477 1.74124C47.8963 1.74124 48.0696 1.843 48.0137 2.28397C47.9522 2.79843 48.2318 3.47118 47.8963 3.80473C47.5888 4.11001 46.9347 3.88953 46.4371 3.89518C45.3022 3.90649 44.1673 3.89518 43.0379 3.89518C42.2608 3.89518 41.8806 4.23439 41.875 4.9241C41.875 5.5912 42.272 5.94736 43.0547 5.94736C48.1479 5.94736 53.2411 5.94736 58.3343 5.94736C60.6042 5.94736 62.8685 5.94736 65.1383 5.94736C65.9043 5.94736 66.2733 5.57424 66.2453 4.86191C66.2229 4.24569 65.8819 3.90649 65.2446 3.90084C63.7127 3.89518 62.1864 3.88388 60.6545 3.90649C60.2408 3.91214 60.0563 3.82734 60.101 3.37507C60.1402 2.99629 60.1346 2.61186 60.101 2.22743C60.0675 1.82604 60.2352 1.74124 60.5986 1.74124C63.4611 1.75255 66.3236 1.74124 69.1861 1.75255C70.9472 1.76386 72.2163 3.07544 72.2163 4.89583C72.2219 12.7597 72.2163 20.6236 72.2163 28.4818C72.2163 29.9008 72.2107 31.3198 72.2219 32.7388C72.2219 33.1006 72.1716 33.2306 71.7802 33.0723C71.2323 32.8462 70.6564 32.6709 70.0638 32.6257C69.6054 32.5861 69.5886 32.343 69.5886 31.9756C69.5942 24.694 69.5942 17.4181 69.5942 10.1365C69.5942 8.42355 69.5215 8.35006 67.8387 8.35006C58.4797 8.35006 49.1207 8.35006 39.7617 8.35006C38.8224 8.35006 38.5317 8.63272 38.5317 9.58249C38.5317 20.9232 38.5317 32.2639 38.5317 43.5989C38.5317 44.4413 38.8672 44.7522 39.7393 44.7522C45.6264 44.7522 51.5136 44.7522 57.3951 44.7409C57.82 44.7409 58.0324 44.8088 58.0995 45.295C58.1834 45.9225 58.407 46.5274 58.6642 47.1097C58.776 47.3641 58.7369 47.4828 58.4406 47.4659C58.189 47.4546 57.9374 47.4659 57.6858 47.4659C51.5303 47.4659 45.3749 47.4659 39.2194 47.4659C37.134 47.4659 35.9096 46.2221 35.9096 44.1021C35.9096 37.6063 35.9096 31.1049 35.9096 24.6092L35.9041 24.6149Z" fill="#ED1C24"/>
<path d="M54.0461 4.65838C52.6596 4.65838 51.2787 4.65838 49.8922 4.65838C49.048 4.65838 48.7461 4.35875 48.7405 3.52771C48.7405 2.691 48.7405 1.8543 48.7405 1.0176C48.7461 0.356154 49.0703 0.00564385 49.7356 0.00564385C52.6317 -9.5391e-06 55.5221 -9.5391e-06 58.4181 0.00564385C59.0387 0.00564385 59.3742 0.361807 59.3798 0.994987C59.3909 1.86561 59.3909 2.74188 59.3854 3.61251C59.3798 4.30787 59.0499 4.64708 58.3511 4.64708C56.9142 4.65273 55.4718 4.64708 54.035 4.64708L54.0461 4.65838Z" fill="#ED1C24"/>
<path d="M54.0966 24.0608C57.7809 24.0608 61.4708 24.0608 65.1552 24.0608C65.3173 24.0608 65.4794 24.0608 65.6416 24.0608C66.1112 24.0608 66.4019 24.2869 66.4354 24.7675C66.469 25.1915 66.1224 25.5024 65.6136 25.5081C64.1935 25.5194 62.7735 25.5081 61.3534 25.5081C55.1476 25.5081 48.9418 25.5081 42.7361 25.5081C42.5572 25.5081 42.3727 25.5081 42.2049 25.4515C41.8695 25.3385 41.6626 25.101 41.6962 24.7109C41.7353 24.3265 41.9701 24.1287 42.3279 24.0721C42.4845 24.0495 42.6522 24.0608 42.8143 24.0608C46.5713 24.0608 50.334 24.0608 54.091 24.0608H54.0966Z" fill="#ED1C24"/>
<path d="M54.0574 28.9962C57.7082 28.9962 61.3534 28.9962 65.0042 28.9962C65.2558 28.9962 65.5074 29.0076 65.7589 29.0189C66.2062 29.0302 66.4298 29.3128 66.4354 29.7142C66.441 30.1269 66.1838 30.3813 65.7701 30.4379C65.6303 30.4548 65.485 30.4435 65.3396 30.4435C57.8312 30.4435 50.3283 30.4435 42.8199 30.4435C42.6913 30.4435 42.5683 30.4492 42.4397 30.4435C41.9757 30.4096 41.6682 30.0987 41.7073 29.6803C41.7465 29.2224 42.0204 29.0076 42.4677 29.0076C44.0499 29.0076 45.6321 29.0076 47.2143 29.0076C49.4953 29.0076 51.7764 29.0076 54.063 29.0076L54.0574 28.9962Z" fill="#ED1C24"/>
<path d="M54.0966 13.4833C57.7809 13.4833 61.4708 13.4833 65.1552 13.4833C65.3173 13.4833 65.4794 13.4833 65.6416 13.4833C66.1112 13.4833 66.4019 13.7095 66.4354 14.19C66.469 14.614 66.1224 14.9249 65.6136 14.9306C64.1935 14.9419 62.7735 14.9306 61.3534 14.9306C55.1476 14.9306 48.9418 14.9306 42.7361 14.9306C42.5572 14.9306 42.3727 14.9306 42.2049 14.8741C41.8695 14.761 41.6626 14.5235 41.6962 14.1335C41.7353 13.749 41.9701 13.5512 42.3279 13.4946C42.4845 13.472 42.6522 13.4833 42.8143 13.4833C46.5713 13.4833 50.334 13.4833 54.091 13.4833H54.0966Z" fill="#ED1C24"/>
<path d="M54.0574 18.4131C57.7082 18.4131 61.3534 18.4131 65.0042 18.4131C65.2558 18.4131 65.5074 18.4244 65.7589 18.4357C66.2062 18.447 66.4298 18.7297 66.4354 19.1311C66.441 19.5438 66.1838 19.7982 65.7701 19.8547C65.6303 19.8717 65.485 19.8604 65.3396 19.8604C57.8312 19.8604 50.3283 19.8604 42.8199 19.8604C42.6913 19.8604 42.5683 19.866 42.4397 19.8604C41.9757 19.8264 41.6682 19.5155 41.7073 19.0971C41.7465 18.6392 42.0204 18.4244 42.4677 18.4244C44.0499 18.4244 45.6321 18.4244 47.2143 18.4244C49.4953 18.4244 51.7764 18.4244 54.063 18.4244L54.0574 18.4131Z" fill="#ED1C24"/>
<path d="M62.902 33.9543C62.2703 34.3783 61.7671 34.7288 61.3254 35.1584C61.1521 35.3224 60.962 35.3619 60.7384 35.3619C54.678 35.3619 48.6175 35.3619 42.5571 35.3619C42.0316 35.3619 41.7129 35.0906 41.7017 34.6666C41.6905 34.203 41.998 33.9316 42.5683 33.9316C49.2046 33.9316 55.8408 33.9316 62.4771 33.9316C62.5777 33.9316 62.6784 33.9429 62.9076 33.9599L62.902 33.9543Z" fill="#ED1C24"/>
<path d="M58.6027 38.867C58.6083 38.9518 58.6195 38.9745 58.6139 38.9858C58.3567 39.8489 57.7883 40.2804 56.9087 40.2804C52.1956 40.2804 47.4826 40.2804 42.764 40.2804C42.5851 40.2804 42.395 40.2974 42.2272 40.2521C41.875 40.156 41.6849 39.9016 41.7017 39.5228C41.7185 39.1723 41.9142 38.9518 42.244 38.8614C42.3446 38.8331 42.4565 38.8388 42.5683 38.8388C47.8236 38.8388 53.0734 38.8388 58.3287 38.8388C58.4182 38.8388 58.5021 38.8501 58.6027 38.8557V38.867Z" fill="#ED1C24"/>
<path d="M33.6621 41.0606C30.2964 41.0606 26.9363 41.0606 23.5707 41.0606C23.4141 41.0606 23.2576 41.0606 23.1011 41.0436C22.391 40.9645 21.8208 40.6422 21.4462 40.0147C20.9933 39.2628 20.9821 38.46 21.2281 37.6459C21.8431 35.6333 22.514 33.632 23.0843 31.6081C23.47 30.24 24.823 29.2054 26.3046 29.2224C28.7925 29.245 31.2748 29.2224 33.7627 29.2337C33.9863 29.2337 34.059 29.1885 34.059 28.9454C34.059 26.7405 34.059 24.5357 34.059 22.3309H12.076L15.6597 14.6366C16.5263 12.1887 33.5838 12.6523 34.0646 12.6636C34.0646 12.0191 34.0646 11.3746 34.0646 10.7245C34.0646 10.4983 34.0031 10.4418 33.7851 10.4475C32.4768 10.4701 31.1742 10.4757 29.8659 10.4983C26.5226 10.5605 23.1849 10.7019 19.8584 11.058C18.539 11.1994 17.2307 11.3803 15.9281 11.6686C15.4081 11.7817 15.0279 12.0134 14.7428 12.5053C13.4346 14.7667 12.1766 17.0619 10.9299 19.3572C10.259 20.5896 9.63841 21.856 8.62648 22.8567C8.55939 22.9245 8.50907 23.0149 8.43639 23.0828C8.35253 23.1676 8.31339 23.3598 8.17921 23.3146C8.06181 23.275 8.00031 23.1054 7.98354 22.9697C7.96117 22.8171 7.97235 22.6531 7.98354 22.5005C8.00031 22.3139 8.03385 22.1274 8.05062 21.9408C8.11771 21.1946 7.87731 20.7706 7.20642 20.454C6.80388 20.2674 6.37898 20.16 5.94849 20.0695C4.4222 19.7586 2.92946 19.849 1.54294 20.6123C0.609274 21.138 0.0557856 21.9578 -0.000122404 23.0658C-0.0336672 23.7273 0.279417 24.1739 0.883224 24.417C1.33608 24.5979 1.81689 24.694 2.2977 24.7845C3.75689 25.0502 5.23286 25.1689 6.73679 25.3215C6.69206 25.5024 6.59143 25.6099 6.51316 25.7286C6.01557 26.4861 5.55713 27.2606 5.15459 28.0747C4.52283 29.3637 4.13148 30.6979 4.19857 32.1678C4.25447 33.3098 4.20975 34.4518 4.20975 35.5994C4.20975 35.7407 4.18738 35.8595 4.08675 35.9782C3.71217 36.4135 3.56122 36.9279 3.56122 37.5046C3.56122 40.5122 3.56122 43.5198 3.56122 46.5274C3.56122 47.8673 4.52842 48.8396 5.84785 48.8453C8.83334 48.8453 11.8132 48.8453 14.7987 48.8453C16.107 48.8453 17.0742 47.8673 17.0798 46.55C17.0798 45.7133 17.0909 44.8766 17.0798 44.0343C17.0798 43.7685 17.1413 43.6837 17.4152 43.6894C19.4614 43.7007 21.5077 43.6951 23.5595 43.6951C26.9699 43.6951 30.3859 43.6951 33.7962 43.6951C34.0199 43.6951 34.0926 43.6498 34.087 43.4011C34.059 42.7622 34.0702 42.1178 34.0646 41.4789C34.0646 41.0153 34.1205 41.0606 33.6677 41.0606H33.6621ZM20.2833 31.0484C20.0093 31.5968 19.7354 32.1339 19.344 32.6088C19.031 32.9819 18.6787 33.2532 18.2874 33.1458C16.5878 33.0045 15.0335 32.8179 13.4793 32.6144C13.2836 32.5918 13.1327 32.6144 12.9649 32.7331C11.4219 33.8299 9.30855 33.4568 8.22394 31.9021C7.13373 30.3361 7.48595 28.1708 9.01783 27.0684C10.5721 25.9491 12.6798 26.2996 13.7868 27.8599C13.9266 28.0578 14.0216 28.2896 14.3011 28.3518C14.4074 28.3744 14.5024 28.397 14.6142 28.3744C15.4808 28.2161 16.1852 28.51 16.7331 29.1998C16.8394 29.3354 16.9568 29.4315 17.1189 29.4937C18.1308 29.9008 19.1428 30.3135 20.1603 30.7205C20.3504 30.794 20.3895 30.8675 20.2945 31.0541L20.2833 31.0484Z" fill="#2E3192"/>
<path d="M79.1992 44.2152C79.2047 45.5833 78.942 46.8949 78.3661 48.1273C78.2096 48.4665 78.2879 48.6248 78.5618 48.8396C81.8883 51.4063 85.2093 53.9786 88.519 56.5678C90.1795 57.8681 90.4031 60.2595 89.039 61.7972C87.6245 63.3971 85.2875 63.4932 83.8172 61.9272C80.9323 58.8631 78.0866 55.7594 75.2353 52.6557C74.9669 52.3617 74.7992 52.2882 74.4134 52.5143C68.5431 55.9064 61.0347 52.0338 60.3638 45.2554C59.8215 39.7603 63.6008 35.4354 68.4481 34.7231C73.5972 33.9656 78.4332 37.6742 79.1153 42.9205C79.1712 43.3502 79.1992 43.7798 79.1992 44.2095V44.2152ZM69.7451 51.5306C73.7314 51.5476 77.002 48.2743 77.0299 44.2547C77.0523 40.2069 73.8096 36.911 69.7954 36.8658C65.8819 36.8205 62.5106 40.0825 62.4939 44.1699C62.4715 48.2121 65.7309 51.508 69.7507 51.525L69.7451 51.5306Z" fill="#2E3192"/>
<path d="M74.4973 41.3828C74.5085 41.7107 74.3855 41.9821 74.1675 42.2252C72.5853 44.0173 71.0143 45.8151 69.4321 47.6015C68.8338 48.2743 68.1126 48.2517 67.5591 47.5507C66.8435 46.6461 66.1335 45.7416 65.4291 44.8314C64.9762 44.2434 65.0153 43.6103 65.5185 43.1749C66.0161 42.7509 66.6423 42.8357 67.1287 43.4237C67.5256 43.8986 67.9114 44.3848 68.2748 44.8879C68.4928 45.1875 68.6158 45.1989 68.8618 44.9049C70.075 43.4972 71.3106 42.1178 72.535 40.7214C72.8928 40.3143 73.3288 40.1899 73.8264 40.3765C74.2793 40.5461 74.4806 40.9079 74.4917 41.3828H74.4973Z" fill="#006837"/>
<path d="M82.1511 41.9934L185.139 41.9934V40.45L82.1511 40.45V41.9934Z" fill="#ED1C24"/>
</g>
<defs>
<clipPath id="clip0_121_4405">
<rect width="312" height="63.0523" fill="white"/>
</clipPath>
</defs>
</svg>
